<svg id="ema7hsVrMjt1" xmlns="http://www.w3.org/2000/svg" xmlns:xlink="http://www.w3.org/1999/xlink" viewBox="0 0 109 109" shape-rendering="geometricPrecision" text-rendering="geometricPrecision" project-id="e90abba3801d4d859180706abc4d7cdd" export-id="10fdc60e7f3f44f5a9ebedc26b4c6219" cached="false"><path d="M0,0C35.97,0,71.94,0,109,0c0,35.97,0,71.94,0,109-35.97,0-71.94,0-109,0C0,73.03,0,37.06,0,0Z" fill="#f3f4f6" stroke="#f3f4f6"/><path d="M0,0C3.63,0,7.26,0,11,0c0,2.31,0,4.62,0,7-.99,0-1.98,0-3,0C8,5.68,8,4.36,8,3C6.35,3,4.7,3,3,3C3,4.65,3,6.3,3,8C28.08,8,53.16,8,79,8c0-2.64,0-5.28,0-8c3.63,0,7.26,0,11,0c0,3.63,0,7.26,0,11-2.31,0-4.62,0-7,0c0-.99,0-1.98,0-3c1.32,0,2.64,0,4,0c0-1.65,0-3.3,0-5-1.65,0-3.3,0-5,0c0,25.08,0,50.16,0,76c2.64,0,5.28,0,8,0c0,3.63,0,7.26,0,11-3.63,0-7.26,0-11,0c0-2.64,0-5.28,0-8-22.44,0-44.88,0-68,0c0,2.64,0,5.28,0,8-3.63,0-7.26,0-11,0c0-3.63,0-7.26,0-11c2.64,0,5.28,0,8,0C8,56.56,8,34.12,8,11c-2.64,0-5.28,0-8,0C0,7.37,0,3.74,0,0Z" transform="translate(10 12)" fill="#fafafa"/><path d="M0,0C3.63,0,7.26,0,11,0c0,2.31,0,4.62,0,7-.99,0-1.98,0-3,0C8,5.68,8,4.36,8,3C6.35,3,4.7,3,3,3C3,4.65,3,6.3,3,8C28.08,8,53.16,8,79,8c0-2.64,0-5.28,0-8c3.63,0,7.26,0,11,0c0,3.63,0,7.26,0,11-2.31,0-4.62,0-7,0c0-.99,0-1.98,0-3c1.32,0,2.64,0,4,0c0-1.65,0-3.3,0-5-1.65,0-3.3,0-5,0c0,25.08,0,50.16,0,76c2.64,0,5.28,0,8,0c0,3.63,0,7.26,0,11-3.63,0-7.26,0-11,0c0-2.64,0-5.28,0-8-22.44,0-44.88,0-68,0c0,2.64,0,5.28,0,8-3.63,0-7.26,0-11,0c0-3.63,0-7.26,0-11c2.64,0,5.28,0,8,0C8,56.56,8,34.12,8,11c-2.64,0-5.28,0-8,0C0,7.37,0,3.74,0,0ZM11,11c0,22.44,0,44.88,0,68c22.44,0,44.88,0,68,0c0-22.44,0-44.88,0-68-22.44,0-44.88,0-68,0Z" transform="translate(10 12)" fill="#353535"/><path d="M0,0C4.29,0,8.58,0,13,0c0,.99,0,1.98,0,3-1.65,0-3.3,0-5,0c.33,6.93.66,13.86,1,21c6.6-6.6,13.2-13.2,20-20-.66-.33-1.32-.66-2-1c0-.99,0-1.98,0-3c3.96,0,7.92,0,12,0c0,.99,0,1.98,0,3-.870359.227842-1.740718.455684-2.637451.69043-3.780614,1.472389-6.284082,3.501561-9.16333,6.262695-.782766.745008-.782766.745008-1.581345,1.505066-1.095405,1.053415-2.185159,2.112735-3.269485,3.177551-1.645933,1.599722-3.33137,3.148217-5.022217,4.700196-5.756394,5.506765-8.969395,9.323533-9.556641,17.460937C7.791629,38.865892,7.848335,40.936431,8,43c1.65,0,3.3,0,5,0c0,.99,0,1.98,0,3-4.29,0-8.58,0-13,0c0-.99,0-1.98,0-3c1.65,0,3.3,0,5,0C5,29.8,5,16.6,5,3C3.35,3,1.7,3,0,3c0-.99,0-1.98,0-3Z" transform="translate(34 34)" fill="#292929"/><path d="M0,0C3.565001,1.188334,4.065866,2.147189,6.144531,5.183594c.594903.84498,1.189805,1.689961,1.802735,2.560547c1.23787,1.787458,2.46971,3.579107,3.695312,5.375c3.584985,5.165744,3.584985,5.165744,8.806641,8.478515C21.290977,21.73043,22.132734,21.863203,23,22c0,.99,0,1.98,0,3-4.29,0-8.58,0-13,0c0-.99,0-1.98,0-3c.99,0,1.98,0,3,0-1.20753-1.667249-2.416073-3.333764-3.625-5-.723164-1.000312-1.446328-2.000625-2.191406-3.03125-2.334101-3.173375-4.760253-6.260135-7.25-9.3125C-0.374492,4.109687,-0.682578,3.563125,-1,3c.33-.99.66-1.98,1-3Z" transform="translate(53 55)" fill="#353535"/><path d="M0,0C25.08,0,50.16,0,76,0c0,1.98,0,3.96,0,6-1.98,0-3.96,0-6,0c0-1.32,0-2.64,0-4-23.1-.33-46.2-.66-70-1c0-.33,0-.66,0-1Z" transform="translate(21 93)" fill="#797979"/><path d="M0,0c.33,0,.66,0,1,0C1,25.08,1,50.16,1,76c-1.98,0-3.96,0-6,0c0-1.98,0-3.96,0-6c1.32,0,2.64,0,4,0c.33-23.1.66-46.2,1-70Z" transform="translate(18 23)" fill="#797979"/><path d="M0,0c.66.33,1.32.66,2,1-.454395.443921-.908789.887842-1.376953,1.345215C-1.423135,4.349949,-3.461623,6.362332,-5.5,8.375c-.71543.698672-1.430859,1.397344-2.167969,2.117188-1.015136,1.005468-1.015136,1.005468-2.050781,2.03125-.942627.926916-.942627.926916-1.904297,1.872558C-13.217121,15.900596,-13.217121,15.900596,-13,18c-1.992841,1.344009-3.994197,2.675413-6,4-2.9982,1.830157-2.9982,1.830157-5,5-.716555,4.330942-.929374,8.614781-1,13-.33,0-.66,0-1,0-.950704-5.355834-1.771232-10.961372,1.066406-15.829468C-21.443731,19.682368,-17.204334,15.926699,-13,12.125c1.255784-1.185442,2.508424-2.374225,3.757813-3.566406C-6.196379,5.66591,-3.111485,2.821852,0,0Z" transform="translate(68 37)" fill="#dfdfdf"/><path d="M0,0C1.65,0,3.3,0,5,0C5,1.65,5,3.3,5,5C3.35,5,1.7,5,0,5C0,3.35,0,1.7,0,0Z" transform="translate(92 94)" fill="#fff"/><path d="M0,0C1.65,0,3.3,0,5,0C5,1.65,5,3.3,5,5C3.35,5,1.7,5,0,5C0,3.35,0,1.7,0,0Z" transform="translate(13 94)" fill="#fff"/></svg>
